PathFileType	4	(X/Y/Z)	../Python\walking\Walking08\task.trc
DataRate	CameraRate	NumFrames	NumMarkers	Units	OrigDataRate	OrigDataStartFrame	OrigNumFrames
200.000000	200.000000	4	30	mm	200.000000	125	501
Frame#	Time	CLAV			STRN			RASI			LPSI			LASI			RTH1			RTH2			RTH3			RTB1			RTB2			RTB3			RHEE			RD5M			RTOE			LTB1			LTB2			LTB3			LTOE			LD5M			RPSI			LTH2			LTH1			PE03			T10			LTH3			PE01			PE02			C7			RBAK			LHEE			
		X1	Y1	Z1	X2	Y2	Z2	X3	Y3	Z3	X4	Y4	Z4	X5	Y5	Z5	X6	Y6	Z6	X7	Y7	Z7	X8	Y8	Z8	X9	Y9	Z9	X10	Y10	Z10	X11	Y11	Z11	X12	Y12	Z12	X13	Y13	Z13	X14	Y14	Z14	X15	Y15	Z15	X16	Y16	Z16	X17	Y17	Z17	X18	Y18	Z18	X19	Y19	Z19	X20	Y20	Z20	X21	Y21	Z21	X22	Y22	Z22	X23	Y23	Z23	X24	Y24	Z24	X25	Y25	Z25	X26	Y26	Z26	X27	Y27	Z27	X28	Y28	Z28	X29	Y29	Z29	X30	Y30	Z30	

126	0.625	329.3731079101564	1428.011352539063	169.9047851562501	376.5697021484376	1233.974365234375	185.530258178711	343.0680541992189	1032.76953125	336.5446166992189	181.1182098388672	1069.653442382813	143.1575164794922	352.4916992187501	1018.309448242188	63.52695465087893	284.4330444335939	767.1783447265627	363.258514404297	224.8397369384767	749.3206176757815	363.1574096679689	239.1479492187501	704.4055786132815	345.5399475097657	198.2272491455079	365.2315063476564	282.727020263672	149.7960205078126	327.2341613769532	284.1202392578126	179.6217346191407	289.5783996582032	269.0029907226564	54.16812133789065	33.96000289916994	177.6246185302735	206.1310882568361	17.35375976562501	269.571258544922	269.9471130371095	30.27847862243654	228.0871887207032	438.7327270507815	397.3760375976565	49.05165481567386	404.279724121094	364.4649658203126	62.57104873657229	446.5940246582034	319.8113098144532	54.73769378662112	535.389587402344	55.84236526489261	90.73578643798831	491.0270080566409	44.50220489501955	55.92687606811526	181.7704467773438	1074.6025390625	242.5473632812501	373.8464965820314	676.662292480469	44.13773345947267	378.4843139648439	722.5795898437502	24.72197723388673	174.3290710449219	1058.167114257813	169.0213775634766	151.0800933837891	1268.850463867188	183.3239898681641	433.7892150878909	666.8331298828127	32.84932708740236	190.0423278808594	1118.941040039063	190.5403900146485	176.5303039550782	1060.8173828125	220.1379394531251	218.8966827392579	1520.928833007813	159.573226928711	203.3315429687501	1447.214965820313	337.7041931152345	334.8172912597657	76.3619079589844	130.2721405029297	
127	0.63	336.3432006835939	1427.201782226563	169.9528198242188	383.2720947265626	1233.122680664063	185.6267852783204	349.4026794433595	1031.83935546875	336.4795532226564	187.8412017822266	1068.974853515625	142.8689880371094	359.4206848144532	1017.762634277344	63.41710281372073	289.3352661132814	766.450378417969	363.1289978027345	229.6187744140626	748.974548339844	363.0819702148439	243.6024322509767	703.9810180664065	345.4568786621095	200.3276672363282	365.1027221679689	282.4443969726564	151.6194610595704	327.4398498535157	283.742645263672	181.2268524169922	289.5714111328126	268.681365966797	54.34660339355472	34.50966262817384	177.0735015869141	206.0713348388673	17.50005531311036	269.3306884765626	269.9720764160157	30.27506065368654	228.0507812500001	449.5434265136721	395.3555908203127	49.43656921386722	416.2645263671877	361.3514709472657	63.29701232910159	459.906433105469	318.1910705566407	54.51713943481448	558.2145996093752	56.80260848999026	90.74292755126956	514.292907714844	43.89624023437501	55.97767639160159	188.2509155273438	1073.905395507813	242.2608642578126	381.524627685547	676.4836425781252	43.73108291625978	386.2290954589846	722.4832763671877	24.49681663513185	180.9877014160157	1057.484008789063	168.7012481689454	157.7192535400391	1268.324951171875	183.5619201660157	441.5594177246096	666.754333496094	32.98117065429689	196.6160125732423	1118.256225585938	190.2819976806641	183.0488739013672	1060.113525390625	219.8177185058595	225.9465179443361	1520.236572265625	159.6540527343751	210.5275115966798	1446.716186523438	337.9371643066407	356.9982299804689	70.84424591064456	130.0642395019532	
128	0.635	343.3233947753907	1426.356567382813	169.9913635253907	389.994079589844	1232.23583984375	185.6988983154297	355.7557373046876	1030.891845703125	336.4093322753907	194.6064758300782	1068.25048828125	142.5559844970704	366.4106750488282	1017.155334472657	63.29285812377933	294.2661743164064	765.7160644531252	363.0016479492189	234.4311370849611	748.6208496093752	363.0066223144532	248.0959777832032	703.5512695312502	345.3667602539064	202.4309692382814	364.9887084960939	282.1669311523439	153.4458923339844	327.665008544922	283.3485107421876	182.8360137939454	289.5816040039064	268.3606567382814	54.53495788574222	35.10465240478517	176.4950866699219	206.002899169922	17.65184593200684	269.0751342773439	269.9936523437501	30.2692337036133	228.0195312500001	460.2198791503909	393.2815551757815	49.79700851440433	428.1504516601565	358.1885070800782	64.01239013671878	473.065612792969	316.5535583496095	54.2902526855469	580.844421386719	58.0347595214844	90.85976409912112	537.4416503906252	43.56818771362306	56.12380218505862	194.7581939697267	1073.176147460938	241.9487915039064	389.017761230469	676.1558837890627	43.34158325195314	393.8052673339846	722.2319946289065	24.29537773132326	187.6861267089844	1056.759033203125	168.3577270507813	164.3734893798829	1267.753051757813	183.7759246826172	449.1318664550784	666.4963378906252	33.09428024291994	203.2204132080079	1117.534301757813	189.9924011230469	189.5995178222657	1059.375854492188	219.4729614257814	232.9996948242189	1519.507080078125	159.7298431396485	217.7262420654298	1446.161010742188	338.159393310547	379.1853637695314	65.67845153808597	129.8471984863282	
129	0.64	350.3141479492189	1425.478149414063	170.020004272461	396.7368164062502	1231.31591796875	185.7481536865235	362.1256103515626	1029.929809570313	336.3380432128907	201.415008544922	1067.481811523438	142.2161407470704	373.4640197753907	1016.4892578125	63.15852355957034	299.2285766601564	764.976013183594	362.8775024414064	239.2800140380861	748.2600708007815	362.9292907714845	252.6331481933595	703.115905761719	345.2679748535157	204.5459136962892	364.890350341797	281.8956604003907	155.2841033935547	327.9109802246095	282.9407348632814	184.4563751220704	289.6099243164064	268.0427551269532	54.73175048828128	35.74824523925783	175.8994903564454	205.9266662597657	17.80663871765137	268.8086547851564	270.0121154785157	30.26033592224123	227.9943847656251	470.7868347167971	391.1574707031252	50.12214660644534	439.956970214844	354.9799804687501	64.68402862548831	486.0940551757815	314.8929443359376	54.07093429565433	603.2436523437502	59.54183578491214	91.08880615234378	560.4373779296877	43.52537918090822	56.36883163452151	201.2922821044923	1072.414916992188	241.608856201172	396.3228759765627	675.6701660156252	42.9652786254883	401.2079772949221	721.8153076171877	24.1087112426758	194.4250640869142	1055.99365234375	167.9884185791016	171.0440673828126	1267.136596679688	183.9649810791016	456.5051879882815	666.0513305664065	33.17629241943361	209.8566284179689	1116.776611328125	189.6702117919922	196.1828002929689	1058.605102539063	219.1014251708986	240.0564270019532	1518.742553710938	159.7993469238282	224.9270477294923	1445.551391601563	338.3696594238282	401.3386535644534	60.88708496093753	129.6237182617188	
